<svg width="16" height="16" viewBox="0 0 16 16" fill="none" xmlns="http://www.w3.org/2000/svg">
  <rect width="16" height="16" rx="3" fill="#3B82F6"/>
  <rect x="2" y="4" width="12" height="8" rx="1" stroke="white" stroke-width="0.75" fill="none"/>
  <rect x="3" y="5" width="1" height="1" rx="0.25" fill="white"/>
  <rect x="4.5" y="5" width="1" height="1" rx="0.25" fill="white"/>
  <rect x="6" y="5" width="1" height="1" rx="0.25" fill="white"/>
  <rect x="7.5" y="5" width="1" height="1" rx="0.25" fill="white"/>
  <rect x="9" y="5" width="1" height="1" rx="0.25" fill="white"/>
  <rect x="10.5" y="5" width="1" height="1" rx="0.25" fill="white"/>
  <rect x="12" y="5" width="1" height="1" rx="0.25" fill="white"/>
  <rect x="3.5" y="6.5" width="1" height="1" rx="0.25" fill="white"/>
  <rect x="5" y="6.5" width="1" height="1" rx="0.25" fill="white"/>
  <rect x="6.5" y="6.5" width="1" height="1" rx="0.25" fill="white"/>
  <rect x="8" y="6.5" width="1" height="1" rx="0.25" fill="white"/>
  <rect x="9.5" y="6.5" width="1" height="1" rx="0.25" fill="white"/>
  <rect x="11" y="6.5" width="1" height="1" rx="0.25" fill="white"/>
  <rect x="4" y="8" width="1" height="1" rx="0.25" fill="white"/>
  <rect x="5.5" y="8" width="1" height="1" rx="0.25" fill="white"/>
  <rect x="7" y="8" width="2" height="1" rx="0.25" fill="white"/>
  <rect x="9.5" y="8" width="1" height="1" rx="0.25" fill="white"/>
  <rect x="11" y="8" width="1" height="1" rx="0.25" fill="white"/>
  <rect x="5" y="9.5" width="6" height="1" rx="0.25" fill="white"/>
</svg>
