<svg width="32" height="32" viewBox="0 0 32 32" fill="none" xmlns="http://www.w3.org/2000/svg">
  <rect width="32" height="32" rx="6" fill="#3B82F6"/>
  <rect x="4" y="8" width="24" height="16" rx="2" stroke="white" stroke-width="1.5" fill="none"/>
  <rect x="6" y="10" width="2" height="2" rx="0.5" fill="white"/>
  <rect x="9" y="10" width="2" height="2" rx="0.5" fill="white"/>
  <rect x="12" y="10" width="2" height="2" rx="0.5" fill="white"/>
  <rect x="15" y="10" width="2" height="2" rx="0.5" fill="white"/>
  <rect x="18" y="10" width="2" height="2" rx="0.5" fill="white"/>
  <rect x="21" y="10" width="2" height="2" rx="0.5" fill="white"/>
  <rect x="24" y="10" width="2" height="2" rx="0.5" fill="white"/>
  <rect x="7" y="13" width="2" height="2" rx="0.5" fill="white"/>
  <rect x="10" y="13" width="2" height="2" rx="0.5" fill="white"/>
  <rect x="13" y="13" width="2" height="2" rx="0.5" fill="white"/>
  <rect x="16" y="13" width="2" height="2" rx="0.5" fill="white"/>
  <rect x="19" y="13" width="2" height="2" rx="0.5" fill="white"/>
  <rect x="22" y="13" width="2" height="2" rx="0.5" fill="white"/>
  <rect x="8" y="16" width="2" height="2" rx="0.5" fill="white"/>
  <rect x="11" y="16" width="2" height="2" rx="0.5" fill="white"/>
  <rect x="14" y="16" width="4" height="2" rx="0.5" fill="white"/>
  <rect x="19" y="16" width="2" height="2" rx="0.5" fill="white"/>
  <rect x="22" y="16" width="2" height="2" rx="0.5" fill="white"/>
  <rect x="10" y="19" width="12" height="2" rx="0.5" fill="white"/>
</svg>
