<svg width="48" height="48" viewBox="0 0 48 48" fill="none" xmlns="http://www.w3.org/2000/svg">
  <rect width="48" height="48" rx="8" fill="#3B82F6"/>
  <rect x="6" y="12" width="36" height="24" rx="3" stroke="white" stroke-width="2" fill="none"/>
  <rect x="9" y="15" width="3" height="3" rx="0.5" fill="white"/>
  <rect x="13.5" y="15" width="3" height="3" rx="0.5" fill="white"/>
  <rect x="18" y="15" width="3" height="3" rx="0.5" fill="white"/>
  <rect x="22.5" y="15" width="3" height="3" rx="0.5" fill="white"/>
  <rect x="27" y="15" width="3" height="3" rx="0.5" fill="white"/>
  <rect x="31.5" y="15" width="3" height="3" rx="0.5" fill="white"/>
  <rect x="36" y="15" width="3" height="3" rx="0.5" fill="white"/>
  <rect x="10.5" y="19.5" width="3" height="3" rx="0.5" fill="white"/>
  <rect x="15" y="19.5" width="3" height="3" rx="0.5" fill="white"/>
  <rect x="19.5" y="19.5" width="3" height="3" rx="0.5" fill="white"/>
  <rect x="24" y="19.5" width="3" height="3" rx="0.5" fill="white"/>
  <rect x="28.5" y="19.5" width="3" height="3" rx="0.5" fill="white"/>
  <rect x="33" y="19.5" width="3" height="3" rx="0.5" fill="white"/>
  <rect x="12" y="24" width="3" height="3" rx="0.5" fill="white"/>
  <rect x="16.5" y="24" width="3" height="3" rx="0.5" fill="white"/>
  <rect x="21" y="24" width="6" height="3" rx="0.5" fill="white"/>
  <rect x="28.5" y="24" width="3" height="3" rx="0.5" fill="white"/>
  <rect x="33" y="24" width="3" height="3" rx="0.5" fill="white"/>
  <rect x="15" y="28.5" width="18" height="3" rx="0.5" fill="white"/>
</svg>
